<svg width="180" height="19" viewBox="0 0 180 19" fill="none" xmlns="http://www.w3.org/2000/svg">
<path d="M118.356 18.7031H121.191V0.459814H118.356V18.7031Z" fill="#2C2C2C"/>
<path d="M144.484 3.19375V0.453125H135.332V0.459484V18.7028H144.573V15.9463H138.11V10.9546H144.271V8.214H138.11V3.19375H144.484Z" fill="#2C2C2C"/>
<path d="M157.067 0.453125H146.383V3.19375H150.307V18.7028H153.143V3.19375H157.067V0.453125Z" fill="#2C2C2C"/>
<path d="M165.362 18.7042H168.108L164.521 0.460938H160.237L156.586 18.7042H159.332L160.106 14.8413H164.604L165.362 18.7042ZM160.66 12.0593L162.374 3.32238L164.056 12.0593H160.66Z" fill="#2C2C2C"/>
<path d="M130.86 9.67987C129.624 8.796 128.018 7.79767 127.174 7.20313C126.33 6.60858 125.893 6.01404 125.893 5.11745C125.893 3.84252 126.932 2.80604 128.209 2.80604C129.369 2.80604 130.334 3.66447 130.5 4.77726L133.15 4.07461C132.669 1.79499 130.637 0.078125 128.209 0.078125C125.425 0.078125 123.16 2.33867 123.16 5.11745C123.16 6.80252 123.992 8.30955 125.495 9.36829C126.782 10.2744 128.146 11.1233 128.948 11.6765C130.079 12.4586 130.497 13.0246 130.497 13.953C130.497 15.2279 129.458 16.2644 128.181 16.2644C127.021 16.2644 126.056 15.4059 125.89 14.2932L123.24 14.9958C123.721 17.2754 125.753 18.9923 128.181 18.9923C130.965 18.9923 133.23 16.7317 133.23 13.953C133.227 12.1757 132.459 10.8213 130.86 9.67987Z" fill="#2C2C2C"/>
<path d="M177.252 0.460938V12.1293L172.611 0.460938H169.684V18.7042H172.429V7.0359L177.068 18.7042H179.998V0.460938H177.252Z" fill="#2C2C2C"/>
<path d="M104.556 18.7031H107.391V0.459818H104.556V18.7031Z" fill="#2C2C2C"/>
<path d="M15.1883 18.7031H18.0234L18.0234 0.459818H15.1883L15.1883 18.7031Z" fill="#2C2C2C"/>
<path d="M30.8562 0.460938H20.1719V3.08075H24.0551V18.7042H27.0176V3.08075H30.8562V0.460938Z" fill="#2C2C2C"/>
<path d="M99.1086 0.457031V7.81095H94.2538V0.457031H91.5078V18.7003H94.2538V10.8186H99.1086V18.7003H101.854V0.457031H99.1086Z" fill="#2C2C2C"/>
<path d="M67.4582 18.7042L61.2049 8.97215L67.197 0.460938H63.8712L59.37 6.90237V0.460938H56.6719V18.7042H59.37V11.3948L64.0114 18.7042H67.4582Z" fill="#2C2C2C"/>
<path d="M39.7339 9.56041C38.4979 8.67654 36.8924 7.67821 36.0482 7.08367C35.2009 6.48912 34.7676 5.89458 34.7676 4.99799C34.7676 3.72306 35.8061 2.73109 37.0835 2.73109C38.2431 2.73109 39.2083 3.58952 39.374 4.70231L42.0243 3.99967C41.537 1.71687 39.5078 0 37.0804 0C34.2962 0 32.0312 2.26054 32.0312 5.03932C32.0312 6.7244 32.8627 8.23143 34.3663 9.29016C35.6532 10.1963 37.0166 11.0452 37.8194 11.5984C38.9503 12.3805 39.3676 12.9465 39.3676 13.8748C39.3676 15.1498 38.3291 16.1862 37.0517 16.1862C35.8921 16.1862 34.9269 15.3278 34.7613 14.215L32.1109 14.9177C32.5919 17.1973 34.6243 18.9142 37.0517 18.9142C39.8359 18.9142 42.1008 16.6536 42.1008 13.8748C42.0976 12.1007 41.3299 10.7018 39.7339 9.56041Z" fill="#2C2C2C"/>
<path d="M87.3557 9.64861C86.1197 8.76475 84.5142 7.76642 83.6701 7.17187C82.8227 6.57733 82.3895 5.98278 82.3895 5.0862C82.3895 3.81127 83.4279 2.77479 84.7054 2.77479C85.8649 2.77479 86.8301 3.63322 86.9958 4.746L89.6462 4.04336C89.1651 1.76374 87.1327 0.046875 84.7054 0.046875C81.9212 0.046875 79.6562 2.30742 79.6562 5.0862C79.6562 6.77127 80.4877 8.2783 81.9913 9.33704C83.2782 10.2432 84.6416 11.0921 85.4444 11.6453C86.5753 12.4274 86.9926 12.9933 86.9926 13.9217C86.9926 15.1966 85.9541 16.2331 84.6767 16.2331C83.5171 16.2331 82.5519 15.3747 82.3863 14.2619L79.7359 14.9645C80.2169 17.2442 82.2493 18.961 84.6767 18.961C87.4609 18.961 89.7258 16.7005 89.7258 13.9217C89.7226 12.1444 88.9517 10.79 87.3557 9.64861Z" fill="#2C2C2C"/>
<path d="M51.3415 0.460938L51.3479 13.382C51.3479 15.3627 50.3126 16.2657 49.032 16.2657C47.7514 16.2657 46.7161 15.3627 46.7161 13.382L46.7225 0.460938H43.9766V13.471C43.9766 16.9619 46.2224 18.9999 49.0288 18.9999C51.8353 18.9999 54.0811 16.9174 54.0811 13.4265V0.460938H51.3415Z" fill="#2C2C2C"/>
<path d="M72.7476 0.0429688C69.9411 0.0429688 67.6953 2.08095 67.6953 5.57192V13.4695C67.6953 16.9605 69.9411 18.9985 72.7476 18.9985C75.5541 18.9985 77.7999 16.916 77.7999 13.425V5.61643C77.7999 2.12547 75.5541 0.0429688 72.7476 0.0429688ZM75.0603 13.3805C75.0603 15.3612 74.025 16.2642 72.7444 16.2642C71.4638 16.2642 70.4285 15.3612 70.4285 13.3805V5.66094C70.4285 3.68018 71.4638 2.77724 72.7444 2.77724C74.025 2.77724 75.0603 3.68018 75.0603 5.66094V13.3805Z" fill="#2C2C2C"/>
<path d="M9.27953 0.460938L6.17043 7.20441L3.05814 0.460938H0V18.7042H2.78418V5.78323L4.86435 10.3615H7.47651L9.55349 5.78323V18.7042H12.3377V0.460938H9.27953Z" fill="#2C2C2C"/>
</svg>
